<svg width="25" height="25" viewBox="0 0 25 25" fill="none" xmlns="http://www.w3.org/2000/svg">
<path d="M17.0228 2.29408H7.02277C4.26134 2.29408 2.02277 4.53266 2.02277 7.29408V17.2941C2.02277 20.0555 4.26134 22.2941 7.02277 22.2941H17.0228C19.7842 22.2941 22.0228 20.0555 22.0228 17.2941V7.29408C22.0228 4.53266 19.7842 2.29408 17.0228 2.29408Z" stroke="black" stroke-width="2" stroke-linecap="round" stroke-linejoin="round"/>
<path d="M16.0228 11.6641C16.1462 12.4963 16.004 13.3463 15.6165 14.0931C15.229 14.8399 14.6159 15.4455 13.8644 15.8238C13.1129 16.202 12.2612 16.3337 11.4306 16.2C10.5999 16.0664 9.83254 15.6742 9.23762 15.0792C8.6427 14.4843 8.25051 13.717 8.11685 12.8863C7.98318 12.0556 8.11484 11.204 8.4931 10.4525C8.87137 9.70094 9.47696 9.08783 10.2238 8.70033C10.9706 8.31283 11.8205 8.17067 12.6528 8.29408C13.5017 8.41997 14.2876 8.81555 14.8945 9.42239C15.5013 10.0292 15.8969 10.8152 16.0228 11.6641Z" stroke="black" stroke-width="2" stroke-linecap="round" stroke-linejoin="round"/>
<path d="M17.5228 6.79408H17.5328" stroke="black" stroke-width="2" stroke-linecap="round" stroke-linejoin="round"/>
</svg>
