<svg width="25" height="25" viewBox="0 0 25 25" fill="none" xmlns="http://www.w3.org/2000/svg">
<g clip-path="url(#clip0_203_12)">
<path d="M23.0228 3.56826C22.0652 4.24374 21.0049 4.76037 19.8828 5.09826C19.2805 4.40577 18.4801 3.91495 17.5898 3.69219C16.6995 3.46942 15.7623 3.52546 14.9048 3.85271C14.0474 4.17997 13.3112 4.76266 12.7957 5.52198C12.2803 6.28129 12.0105 7.1806 12.0228 8.09826V9.09826C10.2654 9.14383 8.52404 8.75407 6.95377 7.96371C5.38351 7.17334 4.03308 6.00689 3.02277 4.56826C3.02277 4.56826 -0.977234 13.5683 8.02277 17.5683C5.96329 18.9662 3.50992 19.6672 1.02277 19.5683C10.0228 24.5683 21.0228 19.5683 21.0228 8.06826C21.0218 7.78971 20.9951 7.51185 20.9428 7.23826C21.9634 6.23175 22.6836 4.96097 23.0228 3.56826V3.56826Z" stroke="black" stroke-width="2" stroke-linecap="round" stroke-linejoin="round"/>
</g>
<defs>
<clipPath id="clip0_203_12">
<rect width="24" height="24" fill="white" transform="translate(0.0227661 0.568259)"/>
</clipPath>
</defs>
</svg>
